<?xml version="1.0" encoding="UTF-8" standalone="no"?>
<!-- Created with Inkscape (http://www.inkscape.org/) -->
<svg height="24px" xmlns:inkscape="http://www.inkscape.org/namespaces/inkscape" xmlns:rdf="http://www.w3.org/1999/02/22-rdf-syntax-ns#" xmlns="http://www.w3.org/2000/svg" xmlns:xlink="http://www.w3.org/1999/xlink" xmlns:ns1="http://sozi.baierouge.fr" xmlns:cc="http://creativecommons.org/ns#" xmlns:dc="http://purl.org/dc/elements/1.1/" xmlns:sodipodi="http://sodipodi.sourceforge.net/DTD/sodipodi-0.dtd" id="svg2" sodipodi:docname="Cloud.svg" viewBox="0 0 687.49 519.34" version="1.1" inkscape:version="0.48.4 r9939">
  <title id="title2998">Cloud_cloudy</title>
  <sodipodi:namedview id="base" bordercolor="#666666" inkscape:pageshadow="2" inkscape:window-y="24" fit-margin-left="0" pagecolor="#ffffff" inkscape:window-height="744" inkscape:window-maximized="1" inkscape:zoom="0.35" inkscape:window-x="0" showgrid="false" borderopacity="1.0" inkscape:current-layer="layer1" inkscape:cx="-248.30977" inkscape:cy="243.75449" fit-margin-top="0" fit-margin-right="0" fit-margin-bottom="0" inkscape:window-width="1366" inkscape:pageopacity="0.0" inkscape:document-units="px"/>
  <g id="layer1" inkscape:label="Layer 1" inkscape:groupmode="layer" transform="translate(-24.738 -256.77)">
    <path id="path3030" style="fill:#000000" inkscape:connector-curvature="0" d="m384.07 775.96c-0.275-0.26658-3.2-0.77225-6.5-1.1237-3.3-0.35146-8.025-1.1116-10.5-1.6893-2.475-0.57764-6.525-1.4288-9-1.8916-4.9151-0.91891-12.878-3.6877-14.517-5.0472-0.56782-0.47125-3.2714-1.6078-6.0079-2.5258-2.7365-0.91793-5.6859-2.297-6.5542-3.0647-0.86831-0.76765-1.9055-1.3957-2.3048-1.3957-1.2691 0-13.115-7.4369-23.236-14.588-11.539-8.1525-27.027-23.195-30.945-30.055-5.076-8.8873-5.9258-9.2343-15.936-6.5076-2.2 0.59927-5.125 1.2948-6.5 1.5456-1.375 0.25083-2.5 0.52049-2.5 0.59926 0 0.0788-1.3092 0.31415-2.9093 0.52308-1.6001 0.20892-3.2807 0.96542-3.7347 1.6811-0.45395 0.71567-0.83226 0.93829-0.84068 0.49469-0.008-0.44359-1.2528-0.16091-2.7653 0.62818-8.8033 4.5928-13.447 5.5699-25.262 5.3154-6.1977-0.13352-10.423-0.67262-11.177-1.4258-0.66614-0.66614-2.3602-1.2112-3.7646-1.2112s-5.8001-1.575-9.7682-3.5-7.4699-3.5-7.7817-3.5c-0.31183 0-1.7437-0.77103-3.182-1.7134-1.4382-0.94237-3.1099-1.7994-3.7148-1.9045-2.5454-0.4422-31.475-17.503-35.668-21.034-4.8592-4.0929-12.932-14.487-12.932-16.651 0-0.71313-0.39431-1.7241-0.87624-2.2466-1.0747-1.1651-4.6892-12.249-6.0916-18.68-1.0349-4.7455-1.5195-8.9904-2.8275-24.77-0.91366-11.022 0.52996-26.679 2.7162-29.459 0.45022-0.57249 1.337-2.6523 1.9707-4.6219 1.2374-3.8462 13.589-15.856 16.359-15.906 1.3267-0.0237 0.80325-1.7812-1.2445-4.1785-4.9998-5.8533-10.023-15.196-12.289-22.859-2.542-8.5943-1.9885-24.342 1.2996-36.976 0.64415-2.475 1.266-5.0495 1.3819-5.7211 0.11591-0.67158 0.52377-1.5341 0.90636-1.9167 1.2115-1.2115 0.75406-3.5991-0.92477-4.8266-0.96658-0.70678-1.6727-2.7687-1.75-5.1102-0.0713-2.159-0.57342-4.2426-1.1158-4.6304-0.64379-0.46022-0.61415-1.6907 0.0854-3.544 0.58937-1.5614 0.76251-3.7192 0.38474-4.795-0.70094-1.9962-0.56511-2.4759 2.3469-8.2871 0.91806-1.8321 1.6692-3.7693 1.6692-4.305 0-1.2737 8.6023-14.622 14.7-22.81 2.6402-3.5454 4.6879-6.8079 4.5504-7.25s0.16968-0.80382 0.68261-0.80382c0.51294 0 1.1884-0.80608 1.5012-1.7913 0.79302-2.4986 7.919-10.209 9.4352-10.209 0.68698 0 1.0158-0.37744 0.73067-0.83875-0.2851-0.4613 1.2875-2.1488 3.4947-3.75s5.6764-4.3985 7.7094-6.2163c2.0329-1.8178 5.3838-4.4651 7.4462-5.8829 2.0625-1.4178 3.75-2.935 3.75-3.3717 0-0.43663 1.2375-1.4253 2.75-2.197 10.548-5.3817 26.553-14.902 28.25-16.804 0.56683-0.63535 10.426-3.6311 23-6.9884 4.675-1.2483 9.4-2.7424 10.5-3.3202 1.1-0.57783 2.5516-0.93897 3.2257-0.80254 0.67412 0.13643 2.4741-0.37179 4-1.1294 1.5259-0.75759 6.1493-1.9342 10.274-2.6148 4.125-0.68054 9.1361-1.592 11.136-2.0255 5.543-1.2016 22.106-1.2977 25.135-0.14589 1.478 0.56195 5.5092 1.2991 8.9582 1.6382 22.239 2.1861 28.803 3.2855 33.596 5.6272 2.5713 1.2562 5.0688 2.1613 5.5502 2.0112 0.48134-0.15008 1.6063 0.36767 2.5 1.1506 1.4995 1.3136 4.9103 2.7306 7.8333 3.2543 0.66463 0.11907 3.3936 2.0591 6.0644 4.3111s5.1486 4.0946 5.5063 4.0946c1.7782 0 15.485 13.534 15.897 15.695 0.27608 1.4513 1.6146 1.9064 6.8339 2.3234 7.2148 0.57652 9.3851 1.5361 15.051 6.6547 2.6286 2.3748 4.0966 4.6906 4.5434 7.1675 0.36309 2.0126 0.81528 4.5262 1.0049 5.5858 0.5867 3.2792 1.9713 3.7271 3.3807 1.0936 0.74182-1.3861 1.6995-2.5202 2.1283-2.5202 0.42872 0 2.0128-1.143 3.5202-2.54 5.1761-4.797 25.022-13.442 34.362-14.969 1.925-0.31464 5.075-1.0013 7-1.5259 9.7592-2.6597 21.912 0.60523 28.727 7.7177 2.3883 2.4926 5.1649 6.1712 6.1704 8.1746 2.2554 4.4941 6.103 15.619 6.103 17.647 0 2.0267 0.72795 1.8888 3.98-0.75398 4.1712-3.3898 8.239-6.2481 8.9164-6.2653 0.33199-0.008 1.2713-0.43748 2.0873-0.95345 2.1544-1.3622 9.9569-5.575 14.016-7.5678 9.9282-4.8739 15.601-7.4732 16.5-7.56 0.55-0.0532 1.675-0.32723 2.5-0.60903 25.375-8.6676 46.737-11.255 60.896-7.3765 6.7466 1.8482 15.853 7.4083 21.477 13.112 5.628 5.7088 12.218 14.385 13.079 17.22 0.37582 1.2375 1.1511 2.25 1.7229 2.25 0.57178 0 0.78058 0.675 0.46399 1.5-0.31658 0.825-0.16416 1.5 0.33871 1.5 0.50288 0-0.60436 2.6868-2.4605 5.9707l-3.3748 5.9707 3.0059 2.5293c1.6532 1.3911 3.3525 2.5293 3.7762 2.5293 0.42364 0 1.8516 0.94759 3.1733 2.1058s4.3161 3.4302 6.6542 5.0489c2.3382 1.6187 5.4882 4.097 7 5.5073s6.1238 5.5508 10.249 9.2011c9.3719 8.2934 21 19.987 21 21.118 0 0.46891 0.37638 1.0026 0.8364 1.1859 1.3226 0.52708 7.8733 14.775 9.5788 20.833 5.2002 18.474-1.7284 48.477-14.033 60.768-5.2913 5.2856-20.75 11.412-31.882 12.635-2.2 0.24173-6.025 0.96222-8.5 1.6011-2.475 0.63887-5.7167 1.3251-7.2037 1.525-1.4871 0.1999-3.9423 1.175-5.456 2.1668-1.5138 0.99185-2.9971 1.7448-3.2963 1.6732-1.6322-0.39065-5.0874 1.8824-7.049 4.6373-3.5976 5.0524-4.1567 9.5085-1.9086 15.212 1.068 2.7095 1.713 5.2965 1.4334 5.7488-0.27958 0.45237 0.12835 1.0668 0.90652 1.3654 0.77817 0.29861 1.2834 1.3583 1.1227 2.3548-0.16069 0.99653 0.0531 2.2619 0.47521 2.8119 0.88119 1.1483 2.6561 12.954 2.8962 19.265 0.2496 6.5594-1.7298 15.683-4.6044 21.224-1.43 2.7563-2.9558 5.0115-3.3907 5.0115-0.43486 0-1.082 0.91789-1.438 2.0398-1.3833 4.3584-16.609 17.035-25.987 21.636-6.3758 3.1282-18.551 6.9188-25 7.7834-2.75 0.36871-6.8 0.92714-9 1.241-8.6207 1.2297-45.02 0.48737-59-1.2032-2.2-0.26604-6.7-0.7225-10-1.0144-5.9518-0.5264-16.05-3.0959-18.031-4.5878-0.56708-0.42716-2.1421-0.99773-3.5-1.2679-1.3579-0.27021-6.0405-1.425-10.406-2.5661-6.2456-1.6327-8.1128-1.807-8.763-0.81798-1.0187 1.5495-0.76757 22.855 0.26185 22.218 0.40762-0.25192 0.16578 1.4537-0.5374 3.7902-0.70319 2.3365-1.3339 4.5857-1.4016 4.9982s-0.17932 0.975-0.24807 1.25c-0.0688 0.275-0.20337 0.8375-0.29916 1.25-0.77651 3.344-2.3082 6.4394-5.1969 10.502-1.8584 2.6138-3.3789 5.0701-3.3789 5.4586 0 1.8151-10.228 10.163-15.525 12.671-8.9942 4.2585-17.998 7.4643-22.723 8.0906-6.7312 0.89222-25.201 1.7999-25.752 1.2656zm23-7.5954c7.4187-1.4454 8.7731-1.8014 14-3.6802 4.3659-1.5693 10.984-5.168 12-6.5249 0.275-0.36741 1.4-0.96215 2.5-1.3217 2.0609-0.67356 8.5-9.3366 8.5-11.436 0-0.64908 0.39541-1.1802 0.87868-1.1802s1.4379-1.35 2.1213-3c0.68345-1.65 1.5416-3 1.907-3 0.36542 0 0.70327-0.7875 0.75078-1.75 0.0475-0.9625 0.31777-4.9 0.6006-8.75 0.28282-3.85 0.21714-9.025-0.14596-11.5-0.92618-6.3131 0.5172-16.21 2.5888-17.75 2.5079-1.8649 12.503-1.5098 18.511 0.65748 6.0493 2.1823 19.36 6.24 20.514 6.2535 0.42543 0.005 1.2432 0.39888 1.8173 0.87532 2.9257 2.4281 62.491 6.0859 66.26 4.0689 1.392-0.74501 2.2825-0.77515 2.7049-0.0916 0.34638 0.56046 1.0769 0.74269 1.6233 0.40497 0.54645-0.33773 3.1029-0.72577 5.6809-0.86231s5.8124-0.585 7.1874-0.99657 4.3-1.0989 6.5-1.5274c4.3578-0.84882 16.694-5.1567 17.5-6.111 0.275-0.32573 1.2392-1.0038 2.1426-1.5068 2.943-1.6385 10.086-7.7963 15.515-13.374 8.6852-8.9244 13.049-20.326 11.965-31.263-0.34205-3.4528-0.67072-6.9527-0.73037-7.7777-0.19312-2.6708-3.1427-12.443-4.3766-14.5-0.65983-1.1-1.799-4.025-2.5315-6.5-0.73248-2.475-1.7035-4.9275-2.1579-5.45-1.1728-1.3486-1.0287-10.55 0.16518-10.55 0.54522 0 2.2814-1.35 3.8583-3 1.5768-1.65 3.1518-3 3.5-3s2.6964-1.575 5.2183-3.5 5.6492-3.5 6.9496-3.5 2.647-0.45734 2.9925-1.0163c0.34546-0.55897 0.9702-0.80489 1.3883-0.54649 0.41811 0.2584 2.9335-0.18426 5.5898-0.98369s6.0788-1.4535 7.6056-1.4535 4.0428-0.52034 5.5911-1.1563c1.5483-0.63597 3.6346-1.0523 4.6361-0.92511 2.1179 0.26889 10.367-2.3367 16.304-5.1496 5.0881-2.411 10.715-7.7603 12.373-11.763 0.6849-1.6535 1.6407-3.0063 2.124-3.0063 0.48327 0 0.87868-0.81 0.87868-1.8s0.44331-2.2433 0.98514-2.7851c1.747-1.747 4.3907-19.711 4.3289-29.415-0.0278-4.3568-1.0764-9.6876-2.3877-12.138-0.54816-1.0242-0.72518-1.8622-0.39336-1.8622 1.0431 0-8.9546-18.225-10.276-18.732-0.69141-0.26532-1.2571-0.91914-1.2571-1.4529 0-1.2863-8.0213-8.6126-10.25-9.3619-0.9625-0.32359-1.7692-1.1205-1.7926-1.771-0.0234-0.65043-2.1609-2.884-4.75-4.9634s-7.0319-5.6794-9.8729-8c-8.8156-7.2006-13.963-10.719-15.682-10.719-0.90868 0-1.6521-0.45-1.6521-1s-0.46882-1-1.0418-1c-0.573 0-2.0078-0.9-3.1886-2-1.1807-1.1-3.1614-2-4.4015-2-2.7761 0-5.4638-3.5731-4.5432-6.0398 0.37128-0.99486 1.7345-3.0253 3.0294-4.5121s2.9562-4.1438 3.6919-5.9044c1.2066-2.8877 1.1035-3.7062-1.0525-8.3598-2.6877-5.8011-9.5936-13.628-16.426-18.616-7.0228-5.1273-18.132-7.7928-29.478-7.0731-10.472 0.66429-23.007 3.0984-24.835 4.8226-0.68978 0.65049-2.3791 1.246-3.7541 1.3233-8.1029 0.45562-37.789 14.587-47.307 22.52-5.3621 4.4688-8.5955 8.188-7.9819 9.1809 0.36615 0.59244-0.0596 0.7388-1.047 0.35992-1.0592-0.40644-1.664-0.13436-1.664 0.74851 0 1.6019-5.9528 5.5502-8.368 5.5502-0.89759 0-1.5195-0.5625-1.382-1.25s-0.3125-1.1375-1-1c-1.757 0.35141-1.5559-1.8484 0.61172-6.6899 2.0591-4.599 1.5701-10.391-1.3546-16.046-0.85714-1.6575-1.3354-3.0137-1.0629-3.0137 0.92336 0-4.3912-7.4806-7.6772-10.806-6.3684-6.4452-11.66-7.7354-22.836-5.5682-4.0871 0.79255-8.331 1.5528-9.431 1.6894-2.7775 0.34489-11.844 3.9249-19 7.5026-5.4983 2.7488-15.674 11.406-15.287 13.007 0.88042 3.6502-3.4752 13.176-6.0246 13.176-1.6614 0-5.2111-6.3768-4.1438-7.4442 0.52572-0.52572 0.95585-3.3082 0.95585-6.1833 0-4.3848-0.40296-5.5444-2.5-7.1939-1.375-1.0816-2.5-2.7589-2.5-3.7274s-1.8415-3.5127-4.0922-5.6538c-3.9448-3.7526-4.2961-3.877-9.75-3.452-5.0522 0.39363-7.9136 1.2888-15.973 4.997-2.9577 1.3609-5.2107 0.0581-7.0848-4.0966l-1.3999-3.1035-7.6001 0.31814c-8.3492 0.3495-20.1 2.5526-20.1 3.7684 0 0.42416-0.56916 0.7712-1.2648 0.7712s-2.944 0.9-4.9964 2-4.2332 2-4.8463 2c-2.3997 0-18.679 10.557-23.734 15.392-5.3185 5.0863-13.159 15.545-13.159 17.553 0 0.58018 0.89143 1.0549 1.981 1.0549 2.432 0 3.7014 4.1577 2.3995 7.8595-1.1257 3.2008-6.7999 7.1405-10.284 7.1405-3.2363 0-5.4024-4.2192-4.4951-8.7556 0.61711-3.0855 0.59929-3.1001-6.3489-5.1693-3.8323-1.1413-8.0443-2.0752-9.36-2.0753s-5.7864-0.64967-9.9349-1.4435c-24.716-4.7295-43.246-3.7204-67.457 3.6733-5.5 1.6796-10.112 2.9903-10.25 2.9126-0.13737-0.0777-3.4344 1.546-7.3269 3.6083-3.8924 2.0622-7.9425 4.1937-9.0002 4.7366-1.0577 0.54292-1.9231 1.3304-1.9231 1.75 0 0.41958-0.612 0.76287-1.36 0.76287s-4.4988 3.2926-8.3352 7.3168c-5.1381 5.3898-8.5679 10.328-13.023 18.75-3.3262 6.2882-6.3977 13.233-6.8254 15.433-0.42775 2.2-0.91077 4.675-1.0734 5.5-1.126 5.7131-1.0067 20.601 0.1972 24.601 3.0654 10.186 12.641 25.399 15.987 25.399 0.78818 0 1.433 0.40424 1.433 0.89831s3.2645 0.87867 7.2544 0.85467c9.249-0.0556 11.746 0.72219 11.746 3.6594 0 2.8785-2.5134 5.1358-7 6.2866-4.4734 1.1474-4.5822 1.1361-10.357-1.0813-4.838-1.8576-4.8749-1.8562-9.3136 0.36059-13.147 6.5658-18.594 18.974-17.754 40.44 0.37324 9.5365 0.9898 17.475 1.4432 18.582 0.11262 0.275 0.28194 1.625 0.37625 3 0.62831 9.16 5.9451 23.964 11.133 31 6.6552 9.0249 13.614 13.962 35.472 25.168 3.575 1.8327 6.725 3.5572 7 3.8322s3.2 1.8061 6.5 3.4024 6.6023 3.3719 7.3384 3.9458c1.902 1.4827 10.247 4.3166 15.339 5.2089 6.9271 1.214 18.889 0.71032 20.461-0.86155 0.38259-0.38259 1.4879-0.69561 2.4563-0.69561 0.96837 0 4.6976-1.5308 8.2872-3.4019 3.7689-1.9645 9.4393-3.8932 13.42-4.5647 3.7916-0.63954 8.1388-1.8087 9.6604-2.5981 1.5216-0.78944 3.6293-1.4353 4.6837-1.4353s2.1761-0.675 2.4927-1.5c0.68946-1.7967 4.4804-1.9813 6.1616-0.3 0.66 0.66 1.2048 2.7975 1.2108 4.75 0.008 2.5466 1.209 5.2585 4.25 9.5947 6.4006 9.1267 7.6163 10.471 15.81 17.479 14.889 12.736 17.139 14.511 21.754 17.161 2.5718 1.4771 5.2265 3.1712 5.8994 3.7647 0.67293 0.59345 2.2479 1.528 3.5 2.0768 1.2521 0.54877 3.6265 1.8202 5.2765 2.8253 2.7192 1.6564 8.463 3.8983 11 4.2934 0.55 0.0856 1.45 0.69083 2 1.3449 1.068 1.2699 8.6713 4.2878 12.616 5.0076 2.1493 0.39216 13.045 2.759 20.138 4.3744 4.1895 0.9542 23.538 0.47929 29.746-0.7301zm-39.409-52.259c-2.7-0.42004-6.3-0.99406-8-1.2756-5.6688-0.93882-11.773-2.6508-14.446-4.0517-3.8512-2.0181-8.9503-7.6674-9.5286-10.557-0.27521-1.375-1.0026-4.075-1.6164-6s-1.4074-4.625-1.7636-6c-0.69724-2.6916-0.53116-12.711 0.33149-20 0.35286-2.9814-0.17989-7.031-1.5787-12-1.1612-4.125-2.2636-8.4618-2.4498-9.6372-0.3208-2.0254-1.377-4.6146-5.6547-13.863-1.0176-2.2-2.983-5.3075-4.3674-6.9055-1.3845-1.598-2.5172-3.2656-2.5172-3.7056 0-0.44001-2.6352-3.5099-5.8559-6.8219-3.2208-3.312-5.7136-6.1642-5.5396-6.3382 0.17396-0.17396-0.90338-1.2908-2.3941-2.4819s-3.702-2.9714-4.914-3.9563c-1.4145-1.1494-2.428-3.4022-2.8302-6.2907-0.34467-2.475-1.6149-5.85-2.8227-7.5s-3.0842-4.7369-4.1698-6.8598c-1.0855-2.1229-2.5362-4.0835-3.2237-4.357-0.6875-0.27344-1.25-0.89388-1.25-1.3788 0-1.6248-4.0092-6.012-8.9573-9.8018-4.2564-3.26-5.3896-5.5744-3.8985-7.9619 0.94951-1.5204 1.7631-1.7409 4.0273-1.0916 3.9179 1.1236 14.731 12.017 17.033 17.16 1.043 2.3296 2.2218 4.4731 2.6195 4.7633 0.39776 0.29025 2.2017 3.3409 4.0088 6.7792s5.1714 8.216 7.4762 10.617 6.2802 6.6061 8.8341 9.3446c7.5796 8.1272 23.204 15.198 40.553 18.353 5.0381 0.91611 36.254 0.61425 41.304-0.39941 1.375-0.276 5.2-0.76623 8.5-1.0894 12.032-1.1782 17.012-1.783 17.588-2.1354 0.3236-0.19804 4.1486-0.66416 8.5-1.0358 4.3514-0.37166 8.918-1.0516 10.148-1.511 1.23-0.45935 4.38-1.1206 7-1.4695 2.62-0.34889 5.255-1.0335 5.8556-1.5213s1.3629-0.61601 1.694-0.2849c0.53085 0.53085 7.3806-1.1801 14.714-3.6752 1.375-0.46784 4.525-1.3682 7-2.0009 2.475-0.63265 4.725-1.448 5-1.8119 0.275-0.36392 3.7494-1.6891 7.7208-2.9448s7.4855-2.7114 7.809-3.2348c0.32351-0.52345 1.192-0.95173 1.9299-0.95173 2.2122 0 17.871-7.6661 20.248-9.9129 1.2145-1.1479 2.6449-2.0871 3.1786-2.0871 0.53371 0 1.565-0.57849 2.2918-1.2855 0.72679-0.70705 3.4589-2.8083 6.0714-4.6695s4.75-3.7577 4.75-4.2145c0-0.45676 0.37449-0.71798 0.83221-0.58048 1.6539 0.49685 20.168-17.75 20.168-19.877 0-0.25149 0.45562-1.0008 1.0125-1.665 3.9311-4.6894 11.951-16.451 11.968-17.55 0.011-0.73825 0.91993-2.4864 2.0199-3.8849 1.1-1.3984 2-3.5518 2-4.7853s0.5625-2.7079 1.25-3.2765c1.7598-1.4554 6.5721-0.32543 7.0073 1.6454 0.48501 2.196-2.7303 9.1654-7.9713 17.278-2.3573 3.649-4.286 7.099-4.286 7.6667s-0.40006 1.1822-0.88902 1.3655c-0.48896 0.18333-2.536 2.3583-4.5488 4.8333-11.874 14.599-20.858 22.884-34.962 32.24-1.0448 0.69307-3.7448 2.6261-6 4.2956-4.4648 3.3054-18.386 10.208-21.346 10.583-0.41512 0.0527-2.4423 0.95669-4.5048 2.0089s-3.75 1.6674-3.75 1.3671-1.4625 0.23656-3.25 1.193c-6.1154 3.2723-17.196 6.9622-23.687 7.8877-1.8903 0.26954-4.0278 0.98046-4.75 1.5798-0.72218 0.59936-1.323 0.69715-1.3351 0.2173-0.0121-0.47984-1.9246 1.205-4.25 3.744-2.3254 2.5391-6.3655 5.5878-8.978 6.775s-4.75 2.6294-4.75 3.205c0 0.57554-0.64316 1.6896-1.4292 2.4757-1.5146 1.5146-3.2102 8.6454-4.0252 16.928-0.79709 8.1007-2.2153 14.635-4.4494 20.5-1.1523 3.025-2.0953 6.2051-2.0956 7.067-0.00048 1.495-2.9703 7.5896-8.0789 16.579-3.037 5.3442-9.8829 9.3745-20.922 12.317-4.675 1.246-10.75 2.9431-13.5 3.7714-2.75 0.8282-6.8 1.5057-9 1.5056-2.2-0.00014-4.675 0.31656-5.5 0.70376s-3.7091 0.36033-6.4091-0.0597zm12.909-6.8799c0-0.0927 1.3001-0.38032 2.8891-0.63915 1.589-0.25884 4.739-1.1425 7-1.9638 4.4939-1.6323 8.1474-2.4752 10.861-2.5058 0.9625-0.0108 1.75-0.39167 1.75-0.84628s1.5014-1.1082 3.3364-1.4525c3.6044-0.67619 12.664-8.5407 12.664-10.994 0-0.78683 1.3227-4.0569 2.9393-7.2668s3.148-7.2712 3.4031-9.0249c0.25508-1.7538 0.75895-3.6663 1.1197-4.25 0.90984-1.4722-0.78878-1.3338-2.3161 0.18871-1.0038 1.0006-1.6378 0.7512-3.1776-1.25-1.058-1.375-2.6234-3.9491-3.4788-5.7203-1.1813-2.446-2.5608-3.4911-5.7374-4.3464-4.1489-1.1172-4.2126-1.0935-8.0033 2.9703-2.1016 2.253-4.1134 4.0964-4.4706 4.0964-1.2307 0-5.2783 4.3513-5.2783 5.6743 0 0.72913-0.85338 1.3257-1.8964 1.3257-2.1779 0-7.5871 5.7542-8.6336 9.1843-1.6389 5.3717-6.4247 7.6372-8.3872 3.9704-2.5018-4.6747-1.0536-13.155 2.2465-13.155 0.78421 0 1.9518-0.63371 2.5946-1.4082 0.92501-1.1146 0.64086-1.9361-1.3626-3.9396-5.5315-5.5315-14.054-0.44131-26.335 15.73-2.8746 3.785-5.2265 7.2913-5.2265 7.7918 0 0.50048-0.86694 1.8405-1.9265 2.9778-1.8349 1.9695-1.8336 4.8485 0.002 4.8485 0.4739 0 0.60662 0.66454 0.29495 1.4768-0.37048 0.96545 0.41941 1.9106 2.2814 2.7296 1.5664 0.68909 3.1787 1.712 3.5828 2.2732 0.40408 0.56119 0.74158 0.66702 0.75 0.23517 0.008-0.43185 0.84569-0.34078 1.8606 0.20239 2.0513 1.0978 5.4285 1.857 12.155 2.7324 2.475 0.32211 4.6296 0.69982 4.788 0.83936 0.3066 0.27007 9.712-0.19953 9.712-0.48491zm-36.279-27.77c3.5589-5.6533 4.4411-6.7083 10.989-13.142 7.8641-7.7265 8.2031-8.0096 12.824-10.707 3.1384-1.8323 3.9405-1.9226 7.1651-0.80619 1.9971 0.69141 3.8094 1.0788 4.0273 0.86088 0.21792-0.21793 2.3741 1.3413 4.7914 3.4649l4.3952 3.8611 5.0435-4.8022c7.4306-7.075 9.6261-8.6089 14.347-10.023 5.737-1.7188 9.5922 0.14998 15.348 7.4403 2.3916 3.029 4.6475 5.5324 5.0131 5.5631 0.60877 0.0511 1.3576-6.562 2.2016-19.444 0.18018-2.75 1.5164-7.5898 2.9695-10.755 3.2058-6.9837 3.2224-7.2766 0.40248-7.1227-4.8158 0.26281-15.279 1.6068-16.019 2.0576-0.42918 0.26167-4.2542 0.67401-8.5 0.91631-4.2458 0.24231-9.7447 0.68601-12.22 0.98602-7.6724 0.93002-35.618 1.1387-41.199 0.30763-11.305-1.6835-19.47-3.6495-24.624-5.9294l-4.3549-1.9264 2.0755 3.5177c1.1415 1.9347 2.2706 4.5936 2.509 5.9086 0.23846 1.315 1.3694 4.5066 2.5133 7.0924 1.1438 2.5858 2.0797 5.3193 2.0797 6.0744 0 0.75508 0.47656 1.3729 1.059 1.3729 0.58246 0 0.78652 0.4409 0.45348 0.97978-0.33305 0.53888 0.0904 3.0296 0.94098 5.535 0.85059 2.5053 1.5465 6.0879 1.5465 7.9612s0.37362 3.6369 0.83026 3.9192c0.45664 0.28222 0.32985 3.7963-0.28175 7.809-0.61161 4.0127-1.0415 7.8584-0.95526 8.5459 0.0862 0.6875 0.213 1.9109 0.28175 2.7186 0.17723 2.0823 2.3235 0.97894 4.3464-2.2343zm-98.52-106.98c-1.3231-2.3584-1.5582-6.2543-0.44818-7.4277 0.688-0.72728 1.3269-2.6723 1.4198-4.3223 0.31149-5.5328 1.5845-12.5 2.2839-12.5 0.38098 0 1.681-1.9788 2.8888-4.3974 2.0246-4.0538 6.6886-8.4057 7.8084-7.2859 0.26207 0.26208 1.6855 0.14461 3.1632-0.26104 3.159-0.86718 8.1867 0.59886 8.1867 2.3872 0 1.5286-2.372 3.5057-7.0142 5.8463-5.6788 2.8632-9.021 9.2204-9.6739 18.401-0.3923 5.5155-1.0246 8.1249-2.1821 9.006-1.81 1.3777-5.7787 1.7196-6.4325 0.55413zm351.71-35.395c-0.3892-0.62973-0.80651-3.4422-0.92737-6.25-0.30713-7.1349-1.3684-10.434-3.5824-11.137-1.0453-0.33178-1.9006-0.97404-1.9006-1.4273 0-1.4708-7.3636-3.7317-12.841-3.9426-3.8068-0.14662-6.5101 0.4037-9.4112 1.9158-4.752 2.4769-8.4309 1.985-9.6804-1.2943-1.0518-2.7602 0.9094-5.2284 5.3034-6.6747 4.2061-1.3845 16.505-2.0557 17.195-0.93849 0.3036 0.49123 1.313 0.89566 2.243 0.89873 3.5566 0.0117 9.2498 2.173 12.148 4.6117 2.7086 2.2791 7.2845 10.485 6.8063 12.205-0.10355 0.37263 0.37416 1.6919 1.0616 2.9317 0.94507 1.7045 0.98748 3.2286 0.17391 6.25-0.87613 3.2537-1.5222 3.9958-3.4784 3.9958-1.3213 0-2.7209-0.51523-3.1101-1.145zm-242.91-12.191c-1.0978-0.64044-3.6376-2.4019-5.6439-3.9144s-4.0696-2.75-4.585-2.75c-1.715 0-5.5931-9.6792-4.5356-11.32 1.7674-2.7423 9.2605-1.6588 9.2605 1.3391 0 1.0895 0.45 1.981 1 1.981s1 0.9 1 2 0.3375 1.9286 0.75 1.8412c1.1646-0.24653 4.5658 1.3046 6.4969 2.9629 2.2913 1.9677 21.319 0.98885 25.798-1.3272 7.1007-3.6719 9.7357 4.8593 2.6826 8.6852-3.0567 1.6581-29.534 2.0708-32.223 0.5022zm62.846-3.5515c-6.2131-2.4283-8.35-4.785-8.35-9.2089 0-2.0823 0.34358-3.9983 0.76351-4.2579 0.41993-0.25953 2.6699 0.82804 5 2.4168s4.2434 2.5621 4.2518 2.1629c0.008-0.39922 0.42244-0.0825 0.92003 0.70378 1.2758 2.016 5.104 2.6446 10.666 1.7515 3.8582-0.61946 13.553-4.6936 14.898-6.2608 1.8134-2.1126 5.2966-2.3026 7.0333-0.38352 2.2373 2.4722 1.2065 4.9657-3.2876 7.9526-8.6021 5.7171-24.034 8.1961-31.896 5.1235zm-45.268-18.46c-0.67883-1.2684-1.0874-3.843-0.90796-5.7212 0.37966-3.9737 2.3299-4.7614 6.8428-2.7638 5.0041 2.215 3.6282 8.8654-2.1086 10.192-2.0327 0.47001-2.8584 0.10168-3.8263-1.7068zm44.672-3.0421c-1.9293-1.9293-1.6818-6.6252 0.41894-7.9487 1.1847-0.74639 2.4047-0.71997 4.1837 0.0906 2.0752 0.94552 2.4413 1.698 2.1079 4.3323-0.46528 3.6764-0.31525 3.4677-3.1086 4.3249-1.319 0.40478-2.7057 0.0971-3.602-0.79917zm-279.79-17.51c0.65849-1.5897 3.902-5.6545 7.2077-9.0328 12.016-12.28 23.496-19.049 41.564-24.51 19.007-5.7447 26.979-7.0154 43.273-6.8976 14.652 0.1059 38.085 3.2921 49.291 6.7022 3.6223 1.1023 5.0275 1.1739 5.7619 0.2935 0.53425-0.64039 2.3526-2.9644 4.0408-5.1644 5.3199-6.9328 14.719-16.337 19.865-19.877 2.7271-1.8759 10.94-6.348 18.25-9.9379 15.241-7.4843 24.412-9.7353 40.122-9.8483l9.6519-0.0694-2.3421-2.7834c-6.0914-7.2392-15.653-13.757-27.14-18.5-2.2-0.90843-4.7814-2.0639-5.7364-2.5676-0.95504-0.50376-2.5525-0.91593-3.55-0.91593-0.99746 0-2.2411-0.41189-2.7636-0.9153-1.0435-1.0054-17.459-3.1975-18.611-2.4853-0.3944 0.24375-4.2321-0.50461-8.5282-1.663-8.2327-2.2199-21.076-2.8233-31.311-1.471-7.1441 0.94387-26.816 5.9914-34.439 8.8367-1.6162 0.60325-3.6412 1.2049-4.5 1.3371-11.531 1.7742-27.061 8.2208-27.061 11.233 0 0.80377-0.29114 1.1703-0.64697 0.81442-0.78495-0.78495-11.346 4.7271-14.262 7.4433-1.1501 1.0715-2.0912 1.6953-2.0912 1.3862s-1.2375 0.21609-2.75 1.1671c-8.2711 5.2006-36.25 31.146-36.25 33.615 0 0.96459-7.596 11.633-9.0436 12.702-1.0199 0.75289-4.0927 7-3.4431 7 0.31054 0-0.32611 0.95609-1.4148 2.1246-3.0587 3.2831-8.046 21.533-6.5472 23.958 1.0176 1.6466 2.184 0.97023 3.4033-1.9734zm-111.46 65.64c-1.9688-5.5968-0.32801-10.072 3.7616-10.26 1.2325-0.0567 4.1591-0.71304 6.5036-1.4585 3.5543-1.1301 4.6759-1.1342 6.7485-0.025 2.9152 1.5602 2.6546 1.7872 4.8983-4.2675 2.1726-5.8625 4.5027-7.3598 8.3313-5.3535 1.5175 0.7952 3.4209 2.3839 4.2298 3.5304 1.7415 2.4682 4.5675 2.7303 5.4222 0.50275 0.33385-0.86998 0.60699-3.0649 0.60699-4.8776 0-6.0035 5.0474-7.1697 8.4638-1.9556l1.6427 2.5071 4.6968-3.3878c6.4042-4.6194 7.9381-5.0561 9.2369-2.6293 0.58886 1.1003 0.80135 2.8491 0.47218 3.8862-0.66167 2.0847-8.2532 7.2671-15.699 10.717-2.6476 1.2266-4.8138 2.6706-4.8138 3.2089 0 0.53824-0.89614 1.263-1.9914 1.6107-4.5813 1.454-7.19 1.4603-9.9677 0.0239-3.8547-1.9933-3.7716-2.0236-4.5834 1.6722-1.2219 5.5632-2.8643 6.4151-8.4774 4.3966-5.0642-1.821-8.3819-1.1575-10.28 2.056-1.0183 1.7242-8.6027 1.8099-9.2028 0.10402zm37.35-112.44c-4.6605-4.7513-5.7423-5.3897-8.4233-4.971-1.7665 0.27591-4.7466-0.26354-7-1.2671-3.8511-1.7151-3.9797-1.7058-6.924 0.50126-1.65 1.2368-4.6796 2.5105-6.7324 2.8304-3.186 0.49646-3.964 0.22809-5.3147-1.8334-1.945-2.9684-2.1898-7.9757-0.4901-10.024 1.1116-1.3394 1.4999-1.2262 3.1978 0.93238l1.9326 2.4569 4.9904-1.967c6.131-2.4166 7.9004-2.449 11.854-0.21702 2.465 1.3915 3.2668 1.486 3.914 0.46125 1.1702-1.853 4.5543-0.26883 11.141 5.2152 3.0211 2.5154 6.1711 4.5805 7 4.589 0.8289 0.009 3.1633-1.904 5.1875-4.25l3.6804-4.2655 3.3196 3.1272c1.8258 1.72 3.8821 2.92 4.5696 2.6667 0.6875-0.25331 1.25 0.0269 1.25 0.62277 0 0.59583 0.9 1.0833 2 1.0833s2-0.40787 2-0.90638c0-1.4023 3.6763-0.10881 5.5382 1.9486 1.5685 1.7332 1.5156 1.9949-0.88978 4.4003-2.997 2.997-6.2955 3.2378-13.01 0.95004-4.6408-1.5813-4.7505-1.5696-6.7339 0.7173-1.4716 1.6968-3.1904 2.3687-6.3633 2.4874-4.0285 0.15068-4.7387-0.23678-9.6942-5.2888zm352.54-48.72c-2.3065-2.5235-3.5755-5.8034-2.6165-6.7624 1.1635-1.1635 6.12-1.284 12.481-0.30337 4.0235 0.62026 4.75 0.48294 4.75-0.89779 0-0.89653-0.35185-1.63-0.78189-1.63s-0.86898-1.0522-0.97542-2.3383-0.87681-3.6486-1.712-5.25c-2.0612-3.9526-1.9185-7.6352 0.37198-9.5964 2.2758-1.9486 10.366-5.6627 12.608-5.788 1.1152-0.0623 4.3046-4.0324 9.4741-11.793 5.1601-7.7468 5.6956-8.234 9.05-8.234 4.0952 0 5.9654 1.4479 5.9654 4.6182 0 3.0838-1.0383 5.4761-2.0937 4.8239-0.48626-0.30053-2.0148 0.71455-3.3967 2.2557-5.2967 5.9072-8.6883 10.31-8.8838 11.532-0.44847 2.8027-2.3379 4.4191-6.6258 5.6681-7.8112 2.2754-9.5451 3.1476-8.0697 4.0594 0.72928 0.45072 1.0168 1.3198 0.63883 1.9313-0.37792 0.61149-0.21058 1.1118 0.37188 1.1118s0.98758 0.3375 0.90026 0.75c-0.19691 0.93023 0.8548 3.9452 2.5432 7.2906 0.70522 1.3974 0.97818 3.1974 0.60658 4-2.6393 5.7008-2.0529 5.4494-13.101 5.616-7.0767 0.10668-10.745-0.23228-11.504-1.063zm-266.39-3.3271c-2.475-0.83538-5.2814-1.9121-6.2364-2.3927-0.95504-0.48061-2.361-0.87383-3.1243-0.87383-1.9587 0-8.2568-6.0593-9.0779-8.7336-0.50762-1.6533-1.3841-2.1908-3.3736-2.0686-1.4783 0.0908-3.2 0.54676-3.826 1.0133-1.7659 1.3161-9.147-0.22998-9.925-2.079-0.60255-1.432-1.0494-6.3278-1.7462-19.132-0.10476-1.925-0.64048-3.8306-1.1905-4.2347-2.2818-1.6764-6.8414-0.67278-10.153 2.2347-4.1625 3.6548-6.0351 3.7791-7.5292 0.5-0.6265-1.375-1.6937-2.5-2.3716-2.5-1.7829 0-2.4362-2.403-1.5404-5.6654 0.51376-1.8709 1.342-2.7347 2.4362-2.5408 0.91176 0.16161 1.6578-0.15293 1.6578-0.69898 0-0.56763 1.4989-0.36653 3.5 0.46959 1.925 0.80431 3.5 1.0688 3.5 0.58764 0-0.48111 1.0722-0.66977 2.3828-0.41925 1.3105 0.25053 2.6688-0.007 3.0183-0.57283 0.34954-0.56558 2.1451-0.78336 3.9901-0.48395 1.8969 0.30781 3.6412 0.0806 4.0141-0.52282 0.40175-0.65004 1.8195 0.14662 3.6271 2.0381 3.1829 3.3306 3.5498 4.3308 1.9513 5.3187-0.55897 0.34546-0.81067 0.96085-0.55933 1.3675 0.25134 0.40668 0.55773 3.5312 0.68086 6.9433 0.28416 7.8744 1.9893 10.557 6.2683 9.8617 5.3277-0.86583 10.278 1.1927 13.091 5.4437 1.3943 2.1069 2.5351 4.2904 2.5351 4.8522 0 0.56179 0.9 1.0214 2 1.0214s2 0.39203 2 0.87117 2.1867 1.1612 4.8593 1.5158c7.5036 0.99539 10.598 6.0077 5.6407 9.1363-1.6332 1.0307-2.8252 0.98364-6.5-0.25669zm59.282-26.071c-1.3976-0.88807-2.0287-6.1781-0.94597-7.93 1.3413-2.1702-2.0061-7.7948-8.3654-14.056-3.4684-3.4151-6.7932-6.2121-7.3884-6.2155-0.59519-0.003-1.8151-1.2949-2.7109-2.8698-1.5361-2.7006-1.4993-3.2336 0.64724-9.372 1.2518-3.5797 3.0483-7.6873 3.9923-9.1279l1.7163-2.6194-3.3635 0.56109c-1.8499 0.30861-4.151 0.71544-5.1135 0.90409-0.9625 0.18864-1.75-0.0649-1.75-0.5634 0-0.49851-0.65917-0.90638-1.4648-0.90638-2.2674 0-3.2689-2.8582-3.7725-10.767-0.25453-3.9967-0.65065-7.4546-0.88027-7.6842-0.22962-0.22962-2.3645-0.65217-4.7441-0.939-4.1061-0.49493-7.7495-2.3321-6.7021-3.3796 0.26649-0.26648-0.17996-2.0748-0.9921-4.0186-2.9565-7.0759 0.75441-9.0737 6.6379-3.5735l2.582 2.4138 2.5758-2.0261c1.4167-1.1144 3.1798-2.0161 3.918-2.0039 2.0834 0.0345 6.5506 4.0399 5.1484 4.6162-0.65661 0.2699-0.99445 1.0242-0.75078 1.6761 0.24368 0.65196 0.61657 4.1104 0.82865 7.6854 0.58651 9.8868 0.85943 10.555 4.1452 10.155 1.5575-0.18987 3.8573-1.0171 5.1106-1.8384 2.7268-1.7867 7.8968-0.96613 8.8038 1.3973 0.72638 1.8929-0.94355 7.3244-3.6756 11.955-1.0811 1.8323-1.6264 3.3314-1.2118 3.3314 0.41457 0 0.0695 0.7875-0.76691 1.75-0.83638 0.9625-1.8229 3.02-2.1922 4.5723-0.60658 2.5494 0.14415 3.6362 7.763 11.238 8.9983 8.9781 10.886 12.893 10.484 21.748-0.22763 5.0181-4.1386 8.0626-7.5624 5.8871zm168.18-3.1469c-3.6678-1.4867-4.5417-3.3473-2.9833-6.3512 0.76966-1.4835 1.1835-2.6973 0.91973-2.6973-0.26381 0 0.43788-0.98485 1.5593-2.1886 1.1214-1.2037 2.039-2.4925 2.039-2.864 0-0.37149 1.7517-1.8894 3.8926-3.373l3.8926-2.6976-1.6174-3.1884c-0.88958-1.7536-1.7167-4.5384-1.838-6.1884-0.21304-2.8978 2.3516-10.463 3.572-10.536 0.32897-0.0198 1.8795-1.0842 3.4456-2.3653 2.0869-1.7071 2.9252-3.367 3.1385-6.214 0.44377-5.9241 0.80159-6.739 4.648-10.585 4.2036-4.2036 6.9265-5.7993 9.8958-5.7993 2.9428 0 7.9701 3.7298 7.9701 5.9131 0 3.736-6.7626 7.3587-9.4983 5.0883-0.86658-0.7192-1.5828-0.6085-2.3951 0.37017-1.1164 1.3452-1.2099 2.8278-0.79644 12.628 0.14182 3.3616-0.15803 4.4262-1.1853 4.2083-0.75634-0.16045-2.1905 0.44614-3.187 1.348-0.9965 0.90183-2.2704 1.3563-2.8309 1.0099-0.5605-0.34641-1.7635 0.50623-2.6732 1.8948-1.9653 2.9994-1.2113 7.5392 1.252 7.5392 0.90619 0 1.3435 0.30412 0.9718 0.67581-0.3717 0.3717 0.19225 1.6092 1.2532 2.75 3.4796 3.7414 1.802 6.9901-5.0058 9.6941-3.2477 1.29-5.905 2.6724-5.905 3.072 0 1.0531-5.3913 9.8198-5.9927 9.7447-0.279-0.0349-1.4229-0.43452-2.542-0.88813zm-62.308-12.465c-2.8431-5.9113-1.6912-13.583 2.0395-13.583 2.0122 0 6.8029-2.0563 6.8029-2.92 0-0.32941-0.88584-1.1522-1.9685-1.8283-1.0827-0.67616-2.6317-2.5117-3.4422-4.0791-1.271-2.4578-1.2845-3.4564-0.0983-7.2612 0.7564-2.4263 1.4054-4.119 1.4422-3.7615s1.662-0.94511 3.6116-2.8947l3.5447-3.5447-1.5065-4.4213c-1.6801-4.9309-1.1873-9.4207 1.2811-11.671 5.8139-5.2999 8.8487-8.6575 10.339-11.439 1.2952-2.4169 2.3738-3.1752 4.5-3.1636 3.6355 0.0199 4.8465 0.90361 5.6299 4.1083 0.51825 2.1202-0.0602 3.3673-3.0147 6.5-2.0108 2.132-3.9176 3.8826-4.2373 3.8903-0.31975 0.008-2.0439 1.1047-3.8314 2.4381-3.9118 2.9179-4.1205 5.512-0.69848 8.6834 1.4033 1.3006 2.1908 2.379 1.75 2.3965-0.44084 0.0175-0.036 0.6135 0.89955 1.3245 2.4732 1.8794 1.8362 5.6782-1.1731 6.996-1.3904 0.60887-2.8152 1.5114-3.1662 2.0055-0.351 0.49416-1.0707 0.63117-1.5993 0.30446-0.52862-0.3267-1.9915 0.59108-3.2509 2.0395-2.6588 3.0579-1.8074 5.5777 2.0775 6.1489 1.3116 0.19282 3.672 1.2672 5.2454 2.3875 2.3961 1.7062 2.763 2.5248 2.2596 5.0417-0.85574 4.2787-3.8005 6.1472-12.844 8.1494-2.1751 0.48157-2.7528 1.1798-2.7636 3.3398-0.0265 5.2912-0.95331 6.8976-3.9796 6.8976-1.8978 0-3.1813-0.69465-3.8492-2.0833zm-46.158-2.5833c0-0.55-0.43681-1-0.97069-1s-2.9847-1.9125-5.4463-4.25c-3.6944-3.5082-4.5132-4.9482-4.691-8.25-0.27347-5.0785 2.0154-15.178 3.7698-16.634 1.553-1.2888 1.8289-3.287 0.32564-2.358-1.5424 0.95322-8.9718-2.6795-9.1014-4.4502-0.0627-0.85665-0.26421-2.84-0.44777-4.4075-0.22968-1.9612 0.42956-3.6732 2.114-5.4898 3.0054-3.2412 3.0197-3.6464 0.19777-5.6222-3.3806-2.367-4.4861-7.0248-4.0439-17.038 0.46338-10.492 1.0213-13.787 2.2099-13.052 0.47156 0.29144 1.4036-0.12831 2.0713-0.93277 1.0586-1.2756 1.5693-1.2789 3.9921-0.026 1.528 0.79018 3.0668 2.1887 3.4195 3.1079 0.88689 2.3112-0.35295 8.2734-1.9062 9.1668-1.6212 0.93254-2.4696 7.066-1.3835 10.002 0.68433 1.8499 1.5855 2.2338 5.2436 2.2338 3.5914 0 4.7191 0.46081 6.0322 2.4648 0.88826 1.3556 1.6122 2.8182 1.6089 3.25-0.003 0.43185-2.2534 3.224-5 6.2048s-4.9938 5.5542-4.9938 5.7186c0 0.34349 3.0141-0.6708 4.5-1.5143 3.3433-1.898 6.8971-0.33887 8.2172 3.605 0.90107 2.692-0.64584 8.0091-1.9505 6.7044-0.43295-0.43296-3.8909 7.1818-4.3443 9.5667-0.0523 0.275-0.37232 1.175-0.71119 2-2.1977 5.3504 0.0895 11.17 4.5203 11.501 1.2477 0.0933 2.2804 0.8062 2.295 1.5842 0.0145 0.77805 0.36064 1.9481 0.76911 2.6001 0.43233 0.69007-0.329 2.2571-1.8219 3.75-2.6594 2.6594-4.4737 3.2939-4.4737 1.5646z"/>
  </g>
  <metadata>
    <rdf:RDF>
      <cc:Work>
        <dc:format>image/svg+xml</dc:format>
        <dc:type rdf:resource="http://purl.org/dc/dcmitype/StillImage"/>
        <cc:license rdf:resource="http://creativecommons.org/licenses/publicdomain/"/>
        <dc:publisher>
          <cc:Agent rdf:about="http://openclipart.org/">
            <dc:title>Openclipart</dc:title>
          </cc:Agent>
        </dc:publisher>
      </cc:Work>
      <cc:License rdf:about="http://creativecommons.org/licenses/publicdomain/">
        <cc:permits rdf:resource="http://creativecommons.org/ns#Reproduction"/>
        <cc:permits rdf:resource="http://creativecommons.org/ns#Distribution"/>
        <cc:permits rdf:resource="http://creativecommons.org/ns#DerivativeWorks"/>
      </cc:License>
    </rdf:RDF>
  </metadata>
</svg>
